<?xml version="1.0" encoding="UTF-8"?>
<svg xmlns="http://www.w3.org/2000/svg" xmlns:xlink="http://www.w3.org/1999/xlink" width="125px" height="116px" viewBox="0 0 125 116" version="1.1">
<g id="surface1">
<path style="fill-rule:nonzero;fill:rgb(88.627451%,46.27451%,10.588235%);fill-opacity:1;stroke-width:1;stroke-linecap:round;stroke-linejoin:round;stroke:rgb(88.627451%,46.27451%,10.588235%);stroke-opacity:1;stroke-miterlimit:4;" d="M 274.101431 35.503644 L 174.597776 109.403347 L 192.996776 65.802202 Z M 274.101431 35.503644 " transform="matrix(0.487459,0,0,0.488627,-15.152145,-17.101938)"/>
<path style="fill-rule:nonzero;fill:rgb(89.411765%,46.27451%,10.588235%);fill-opacity:1;stroke-width:1;stroke-linecap:round;stroke-linejoin:round;stroke:rgb(89.411765%,46.27451%,10.588235%);stroke-opacity:1;stroke-miterlimit:4;" d="M 44.402407 35.503644 L 143.096699 110.098855 L 125.603224 65.802202 Z M 238.297104 206.798424 L 211.796452 247.40169 L 268.499993 262.998653 L 284.799457 207.701785 Z M 33.896705 207.701785 L 50.100007 262.998653 L 106.803548 247.40169 L 80.302896 206.798424 Z M 33.896705 207.701785 " transform="matrix(0.487459,0,0,0.488627,-15.152145,-17.101938)"/>
<path style="fill-rule:nonzero;fill:rgb(89.411765%,46.27451%,10.588235%);fill-opacity:1;stroke-width:1;stroke-linecap:round;stroke-linejoin:round;stroke:rgb(89.411765%,46.27451%,10.588235%);stroke-opacity:1;stroke-miterlimit:4;" d="M 103.598147 138.19897 L 87.803534 162.102054 L 144.098386 164.596289 L 142.103024 104.103098 Z M 214.897678 138.19897 L 175.903976 103.399596 L 174.597776 164.596289 L 230.796466 162.102054 Z M 106.803548 247.40169 L 140.596486 230.901367 L 111.403298 208.101502 Z M 177.899338 230.901367 L 211.796452 247.40169 L 207.10054 208.101502 Z M 177.899338 230.901367 " transform="matrix(0.487459,0,0,0.488627,-15.152145,-17.101938)"/>
<path style="fill-rule:nonzero;fill:rgb(84.313725%,75.686275%,70.196078%);fill-opacity:1;stroke-width:1;stroke-linecap:round;stroke-linejoin:round;stroke:rgb(84.313725%,75.686275%,70.196078%);stroke-opacity:1;stroke-miterlimit:4;" d="M 211.796452 247.40169 L 177.899338 230.901367 L 180.599889 252.99773 L 180.303389 262.303145 Z M 106.803548 247.40169 L 138.296611 262.303145 L 138.096273 252.99773 L 140.596486 230.901367 Z M 106.803548 247.40169 " transform="matrix(0.487459,0,0,0.488627,-15.152145,-17.101938)"/>
<path style="fill-rule:nonzero;fill:rgb(13.72549%,20.392157%,27.843137%);fill-opacity:1;stroke-width:1;stroke-linecap:round;stroke-linejoin:round;stroke:rgb(13.72549%,20.392157%,27.843137%);stroke-opacity:1;stroke-miterlimit:4;" d="M 138.801462 193.503832 L 110.601948 185.19771 L 130.499473 176.100148 Z M 179.702376 193.503832 L 187.996351 176.100148 L 207.998052 185.19771 Z M 179.702376 193.503832 " transform="matrix(0.487459,0,0,0.488627,-15.152145,-17.101938)"/>
<path style="fill-rule:nonzero;fill:rgb(80.392157%,38.039216%,8.627451%);fill-opacity:1;stroke-width:1;stroke-linecap:round;stroke-linejoin:round;stroke:rgb(80.392157%,38.039216%,8.627451%);stroke-opacity:1;stroke-miterlimit:4;" d="M 106.803548 247.40169 L 111.603635 206.798424 L 80.302896 207.701785 Z M 206.996365 206.798424 L 211.796452 247.40169 L 238.297104 207.701785 Z M 230.796466 162.102054 L 174.597776 164.596289 L 179.798538 193.503832 L 188.100527 176.100148 L 208.102228 185.19771 Z M 110.601948 185.19771 L 130.603649 176.100148 L 138.801462 193.503832 L 144.098386 164.596289 L 87.803534 162.102054 Z M 110.601948 185.19771 " transform="matrix(0.487459,0,0,0.488627,-15.152145,-17.101938)"/>
<path style="fill-rule:nonzero;fill:rgb(89.411765%,45.882353%,12.156863%);fill-opacity:1;stroke-width:1;stroke-linecap:round;stroke-linejoin:round;stroke:rgb(89.411765%,45.882353%,12.156863%);stroke-opacity:1;stroke-miterlimit:4;" d="M 87.803534 162.102054 L 111.403298 208.101502 L 110.601948 185.19771 Z M 208.102228 185.19771 L 207.10054 208.101502 L 230.796466 162.102054 Z M 144.098386 164.596289 L 138.801462 193.503832 L 145.396574 227.599704 L 146.903112 182.703475 Z M 174.597776 164.596289 L 171.897225 182.599549 L 173.099251 227.599704 L 179.798538 193.503832 Z M 174.597776 164.596289 " transform="matrix(0.487459,0,0,0.488627,-15.152145,-17.101938)"/>
<path style="fill-rule:nonzero;fill:rgb(96.470588%,52.156863%,10.588235%);fill-opacity:1;stroke-width:1;stroke-linecap:round;stroke-linejoin:round;stroke:rgb(96.470588%,52.156863%,10.588235%);stroke-opacity:1;stroke-miterlimit:4;" d="M 179.798538 193.503832 L 173.099251 227.599704 L 177.899338 230.901367 L 207.10054 208.101502 L 208.102228 185.19771 Z M 110.601948 185.19771 L 111.403298 208.101502 L 140.596486 230.901367 L 145.396574 227.599704 L 138.801462 193.503832 Z M 110.601948 185.19771 " transform="matrix(0.487459,0,0,0.488627,-15.152145,-17.101938)"/>
<path style="fill-rule:nonzero;fill:rgb(75.294118%,67.843137%,61.960784%);fill-opacity:1;stroke-width:1;stroke-linecap:round;stroke-linejoin:round;stroke:rgb(75.294118%,67.843137%,61.960784%);stroke-opacity:1;stroke-miterlimit:4;" d="M 180.303389 262.303145 L 180.599889 252.99773 L 178.099676 250.799286 L 140.396149 250.799286 L 138.096273 252.99773 L 138.296611 262.303145 L 106.803548 247.40169 L 117.798073 256.40332 L 140.099649 271.896356 L 178.396176 271.896356 L 200.801927 256.40332 L 211.796452 247.40169 Z M 180.303389 262.303145 " transform="matrix(0.487459,0,0,0.488627,-15.152145,-17.101938)"/>
<path style="fill-rule:nonzero;fill:rgb(8.627451%,8.627451%,8.627451%);fill-opacity:1;stroke-width:1;stroke-linecap:round;stroke-linejoin:round;stroke:rgb(8.627451%,8.627451%,8.627451%);stroke-opacity:1;stroke-miterlimit:4;" d="M 177.899338 230.901367 L 173.099251 227.599704 L 145.396574 227.599704 L 140.596486 230.901367 L 138.096273 252.99773 L 140.396149 250.799286 L 178.099676 250.799286 L 180.599889 252.99773 Z M 177.899338 230.901367 " transform="matrix(0.487459,0,0,0.488627,-15.152145,-17.101938)"/>
<path style="fill-rule:nonzero;fill:rgb(46.27451%,23.921569%,8.627451%);fill-opacity:1;stroke-width:1;stroke-linecap:round;stroke-linejoin:round;stroke:rgb(46.27451%,23.921569%,8.627451%);stroke-opacity:1;stroke-miterlimit:4;" d="M 278.300506 114.199953 L 286.802832 73.396828 L 274.101431 35.503644 L 177.899338 106.901118 L 214.897678 138.19897 L 267.201806 153.500141 L 278.797343 139.997697 L 273.796918 136.400242 L 281.802407 129.101408 L 275.599956 124.296808 L 283.597431 118.197124 Z M 31.797168 73.396828 L 40.299494 114.199953 L 34.898393 118.197124 L 42.903882 124.296808 L 36.797593 129.101408 L 44.803082 136.400242 L 39.802657 139.997697 L 51.302032 153.500141 L 103.598147 138.19897 L 140.596486 106.901118 L 44.402407 35.503644 Z M 31.797168 73.396828 " transform="matrix(0.487459,0,0,0.488627,-15.152145,-17.101938)"/>
<path style="fill-rule:nonzero;fill:rgb(96.470588%,52.156863%,10.588235%);fill-opacity:1;stroke-width:1;stroke-linecap:round;stroke-linejoin:round;stroke:rgb(96.470588%,52.156863%,10.588235%);stroke-opacity:1;stroke-miterlimit:4;" d="M 267.201806 153.500141 L 214.897678 138.19897 L 230.796466 162.102054 L 207.10054 208.101502 L 238.297104 207.701785 L 284.799457 207.701785 Z M 103.598147 138.19897 L 51.302032 153.500141 L 33.896705 207.701785 L 80.302896 207.701785 L 111.403298 208.101502 L 87.803534 162.102054 Z M 174.597776 164.596289 L 177.899338 106.901118 L 193.100952 65.802202 L 125.603224 65.802202 L 140.596486 106.901118 L 144.098386 164.596289 L 145.300412 182.799407 L 145.396574 227.599704 L 173.099251 227.599704 L 173.299588 182.799407 Z M 174.597776 164.596289 " transform="matrix(0.487459,0,0,0.488627,-15.152145,-17.101938)"/>
</g>
</svg>
